<mxfile host="app.diagrams.net" modified="2024-07-06T19:21:43.062Z" agent="Mozilla/5.0 (Windows NT 10.0; Win64; x64) AppleWebKit/537.36 (KHTML, like Gecko) Chrome/126.0.0.0 Safari/537.36" etag="4XmxIlDvNQCxk7a4AFBl" version="24.6.4" type="device">
  <diagram name="Page-1" id="9csiGRajn9hbeka8NCRL">
    <mxGraphModel dx="1382" dy="1923" grid="1" gridSize="10" guides="1" tooltips="1" connect="1" arrows="1" fold="1" page="1" pageScale="1" pageWidth="827" pageHeight="1169" math="0" shadow="0">
      <root>
        <mxCell id="0" />
        <mxCell id="1" parent="0" />
        <mxCell id="bd4QD1NhrBbxVst7JC30-13" style="edgeStyle=none;curved=1;rounded=0;orthogonalLoop=1;jettySize=auto;html=1;fontSize=12;startSize=8;endSize=8;" parent="1" source="At3crt5vRcggLfKBgVWZ-298" target="bd4QD1NhrBbxVst7JC30-11" edge="1">
          <mxGeometry relative="1" as="geometry" />
        </mxCell>
        <mxCell id="DqapslR-0D_kuPsbDA2L-30" style="edgeStyle=none;curved=1;rounded=0;orthogonalLoop=1;jettySize=auto;html=1;fontSize=12;startSize=8;endSize=8;" edge="1" parent="1" source="At3crt5vRcggLfKBgVWZ-298" target="DqapslR-0D_kuPsbDA2L-8">
          <mxGeometry relative="1" as="geometry" />
        </mxCell>
        <mxCell id="DqapslR-0D_kuPsbDA2L-31" style="edgeStyle=none;curved=1;rounded=0;orthogonalLoop=1;jettySize=auto;html=1;fontSize=12;startSize=8;endSize=8;" edge="1" parent="1" source="At3crt5vRcggLfKBgVWZ-298" target="At3crt5vRcggLfKBgVWZ-299">
          <mxGeometry relative="1" as="geometry" />
        </mxCell>
        <mxCell id="DqapslR-0D_kuPsbDA2L-32" style="edgeStyle=none;curved=1;rounded=0;orthogonalLoop=1;jettySize=auto;html=1;fontSize=12;startSize=8;endSize=8;" edge="1" parent="1" source="At3crt5vRcggLfKBgVWZ-298" target="At3crt5vRcggLfKBgVWZ-300">
          <mxGeometry relative="1" as="geometry" />
        </mxCell>
        <mxCell id="DqapslR-0D_kuPsbDA2L-33" style="edgeStyle=none;curved=1;rounded=0;orthogonalLoop=1;jettySize=auto;html=1;fontSize=12;startSize=8;endSize=8;" edge="1" parent="1" source="At3crt5vRcggLfKBgVWZ-298" target="At3crt5vRcggLfKBgVWZ-301">
          <mxGeometry relative="1" as="geometry" />
        </mxCell>
        <mxCell id="DqapslR-0D_kuPsbDA2L-34" style="edgeStyle=none;curved=1;rounded=0;orthogonalLoop=1;jettySize=auto;html=1;fontSize=12;startSize=8;endSize=8;" edge="1" parent="1" source="At3crt5vRcggLfKBgVWZ-298" target="DqapslR-0D_kuPsbDA2L-9">
          <mxGeometry relative="1" as="geometry" />
        </mxCell>
        <mxCell id="DqapslR-0D_kuPsbDA2L-35" style="edgeStyle=none;curved=1;rounded=0;orthogonalLoop=1;jettySize=auto;html=1;fontSize=12;startSize=8;endSize=8;" edge="1" parent="1" source="At3crt5vRcggLfKBgVWZ-298" target="DqapslR-0D_kuPsbDA2L-10">
          <mxGeometry relative="1" as="geometry" />
        </mxCell>
        <mxCell id="At3crt5vRcggLfKBgVWZ-298" value="Korisnik" style="rounded=0;whiteSpace=wrap;html=1;" parent="1" vertex="1">
          <mxGeometry x="100" y="-320" width="100" height="40" as="geometry" />
        </mxCell>
        <mxCell id="At3crt5vRcggLfKBgVWZ-299" value="UserID" style="ellipse;whiteSpace=wrap;html=1;" parent="1" vertex="1">
          <mxGeometry x="-60" y="-410" width="80" height="40" as="geometry" />
        </mxCell>
        <mxCell id="At3crt5vRcggLfKBgVWZ-300" value="Ime i prezime" style="ellipse;whiteSpace=wrap;html=1;" parent="1" vertex="1">
          <mxGeometry x="-5" y="-480" width="80" height="40" as="geometry" />
        </mxCell>
        <mxCell id="At3crt5vRcggLfKBgVWZ-301" value="email" style="ellipse;whiteSpace=wrap;html=1;" parent="1" vertex="1">
          <mxGeometry x="100" y="-500" width="80" height="40" as="geometry" />
        </mxCell>
        <mxCell id="bd4QD1NhrBbxVst7JC30-17" style="edgeStyle=none;curved=1;rounded=0;orthogonalLoop=1;jettySize=auto;html=1;fontSize=12;startSize=8;endSize=8;" parent="1" source="At3crt5vRcggLfKBgVWZ-302" target="At3crt5vRcggLfKBgVWZ-356" edge="1">
          <mxGeometry relative="1" as="geometry" />
        </mxCell>
        <mxCell id="bd4QD1NhrBbxVst7JC30-19" style="edgeStyle=none;curved=1;rounded=0;orthogonalLoop=1;jettySize=auto;html=1;entryX=0;entryY=0.5;entryDx=0;entryDy=0;fontSize=12;startSize=8;endSize=8;" parent="1" source="At3crt5vRcggLfKBgVWZ-302" target="At3crt5vRcggLfKBgVWZ-310" edge="1">
          <mxGeometry relative="1" as="geometry" />
        </mxCell>
        <mxCell id="At3crt5vRcggLfKBgVWZ-302" value="ima" style="rhombus;whiteSpace=wrap;html=1;" parent="1" vertex="1">
          <mxGeometry x="280" y="165" width="60" height="50" as="geometry" />
        </mxCell>
        <mxCell id="At3crt5vRcggLfKBgVWZ-306" style="edgeStyle=none;rounded=0;orthogonalLoop=1;jettySize=auto;html=1;exitX=0.5;exitY=0;exitDx=0;exitDy=0;entryX=0.5;entryY=1;entryDx=0;entryDy=0;" parent="1" source="At3crt5vRcggLfKBgVWZ-310" target="At3crt5vRcggLfKBgVWZ-323" edge="1">
          <mxGeometry relative="1" as="geometry" />
        </mxCell>
        <mxCell id="At3crt5vRcggLfKBgVWZ-307" style="edgeStyle=none;rounded=0;orthogonalLoop=1;jettySize=auto;html=1;exitX=0.5;exitY=0;exitDx=0;exitDy=0;entryX=0.5;entryY=1;entryDx=0;entryDy=0;" parent="1" source="At3crt5vRcggLfKBgVWZ-310" target="At3crt5vRcggLfKBgVWZ-324" edge="1">
          <mxGeometry relative="1" as="geometry" />
        </mxCell>
        <mxCell id="At3crt5vRcggLfKBgVWZ-308" style="edgeStyle=none;rounded=0;orthogonalLoop=1;jettySize=auto;html=1;exitX=0.5;exitY=0;exitDx=0;exitDy=0;entryX=0.5;entryY=1;entryDx=0;entryDy=0;" parent="1" source="At3crt5vRcggLfKBgVWZ-310" target="At3crt5vRcggLfKBgVWZ-325" edge="1">
          <mxGeometry relative="1" as="geometry" />
        </mxCell>
        <mxCell id="bd4QD1NhrBbxVst7JC30-2" style="edgeStyle=none;curved=1;rounded=0;orthogonalLoop=1;jettySize=auto;html=1;exitX=0.5;exitY=0;exitDx=0;exitDy=0;entryX=0.5;entryY=1;entryDx=0;entryDy=0;fontSize=12;startSize=8;endSize=8;" parent="1" source="At3crt5vRcggLfKBgVWZ-310" target="bd4QD1NhrBbxVst7JC30-1" edge="1">
          <mxGeometry relative="1" as="geometry" />
        </mxCell>
        <mxCell id="At3crt5vRcggLfKBgVWZ-310" value="Agenda" style="rounded=0;whiteSpace=wrap;html=1;" parent="1" vertex="1">
          <mxGeometry x="470" y="300" width="100" height="40" as="geometry" />
        </mxCell>
        <mxCell id="At3crt5vRcggLfKBgVWZ-323" value="Sifra" style="ellipse;whiteSpace=wrap;html=1;" parent="1" vertex="1">
          <mxGeometry x="360" y="170" width="80" height="40" as="geometry" />
        </mxCell>
        <mxCell id="At3crt5vRcggLfKBgVWZ-324" value="Naziv" style="ellipse;whiteSpace=wrap;html=1;" parent="1" vertex="1">
          <mxGeometry x="450" y="160" width="80" height="40" as="geometry" />
        </mxCell>
        <mxCell id="At3crt5vRcggLfKBgVWZ-325" value="Opis" style="ellipse;whiteSpace=wrap;html=1;" parent="1" vertex="1">
          <mxGeometry x="590" y="205" width="80" height="40" as="geometry" />
        </mxCell>
        <mxCell id="bd4QD1NhrBbxVst7JC30-10" style="edgeStyle=none;curved=1;rounded=0;orthogonalLoop=1;jettySize=auto;html=1;fontSize=12;startSize=8;endSize=8;" parent="1" source="At3crt5vRcggLfKBgVWZ-356" target="bd4QD1NhrBbxVst7JC30-9" edge="1">
          <mxGeometry relative="1" as="geometry" />
        </mxCell>
        <mxCell id="DqapslR-0D_kuPsbDA2L-2" style="edgeStyle=none;curved=1;rounded=0;orthogonalLoop=1;jettySize=auto;html=1;fontSize=12;startSize=8;endSize=8;" edge="1" parent="1" source="At3crt5vRcggLfKBgVWZ-356" target="DqapslR-0D_kuPsbDA2L-1">
          <mxGeometry relative="1" as="geometry" />
        </mxCell>
        <mxCell id="DqapslR-0D_kuPsbDA2L-17" style="edgeStyle=none;curved=1;rounded=0;orthogonalLoop=1;jettySize=auto;html=1;fontSize=12;startSize=8;endSize=8;" edge="1" parent="1" source="At3crt5vRcggLfKBgVWZ-356" target="DqapslR-0D_kuPsbDA2L-14">
          <mxGeometry relative="1" as="geometry" />
        </mxCell>
        <mxCell id="DqapslR-0D_kuPsbDA2L-18" style="edgeStyle=none;curved=1;rounded=0;orthogonalLoop=1;jettySize=auto;html=1;fontSize=12;startSize=8;endSize=8;" edge="1" parent="1" source="At3crt5vRcggLfKBgVWZ-356" target="DqapslR-0D_kuPsbDA2L-16">
          <mxGeometry relative="1" as="geometry" />
        </mxCell>
        <mxCell id="DqapslR-0D_kuPsbDA2L-28" style="edgeStyle=none;curved=1;rounded=0;orthogonalLoop=1;jettySize=auto;html=1;fontSize=12;startSize=8;endSize=8;" edge="1" parent="1" source="At3crt5vRcggLfKBgVWZ-356" target="At3crt5vRcggLfKBgVWZ-367">
          <mxGeometry relative="1" as="geometry" />
        </mxCell>
        <mxCell id="DqapslR-0D_kuPsbDA2L-29" style="edgeStyle=none;curved=1;rounded=0;orthogonalLoop=1;jettySize=auto;html=1;fontSize=12;startSize=8;endSize=8;" edge="1" parent="1" source="At3crt5vRcggLfKBgVWZ-356" target="At3crt5vRcggLfKBgVWZ-369">
          <mxGeometry relative="1" as="geometry" />
        </mxCell>
        <mxCell id="At3crt5vRcggLfKBgVWZ-356" value="Sjednica" style="rounded=0;whiteSpace=wrap;html=1;" parent="1" vertex="1">
          <mxGeometry x="90" y="-10" width="100" height="40" as="geometry" />
        </mxCell>
        <mxCell id="At3crt5vRcggLfKBgVWZ-367" value="SjednicaID" style="ellipse;whiteSpace=wrap;html=1;" parent="1" vertex="1">
          <mxGeometry x="40" y="140" width="80" height="40" as="geometry" />
        </mxCell>
        <mxCell id="At3crt5vRcggLfKBgVWZ-369" value="lokacija" style="ellipse;whiteSpace=wrap;html=1;" parent="1" vertex="1">
          <mxGeometry x="160" y="120" width="80" height="40" as="geometry" />
        </mxCell>
        <mxCell id="bd4QD1NhrBbxVst7JC30-1" value="Lokacija" style="ellipse;whiteSpace=wrap;html=1;" parent="1" vertex="1">
          <mxGeometry x="540" y="160" width="80" height="40" as="geometry" />
        </mxCell>
        <mxCell id="bd4QD1NhrBbxVst7JC30-9" value="naziv" style="ellipse;whiteSpace=wrap;html=1;" parent="1" vertex="1">
          <mxGeometry x="-60" y="17" width="80" height="36" as="geometry" />
        </mxCell>
        <mxCell id="bd4QD1NhrBbxVst7JC30-14" style="edgeStyle=none;curved=1;rounded=0;orthogonalLoop=1;jettySize=auto;html=1;fontSize=12;startSize=8;endSize=8;" parent="1" source="bd4QD1NhrBbxVst7JC30-11" target="At3crt5vRcggLfKBgVWZ-356" edge="1">
          <mxGeometry relative="1" as="geometry" />
        </mxCell>
        <mxCell id="bd4QD1NhrBbxVst7JC30-11" value="Kreira" style="rhombus;whiteSpace=wrap;html=1;" parent="1" vertex="1">
          <mxGeometry x="150" y="-190" width="60" height="50" as="geometry" />
        </mxCell>
        <mxCell id="bd4QD1NhrBbxVst7JC30-15" value="1" style="text;html=1;strokeColor=none;fillColor=none;align=center;verticalAlign=middle;whiteSpace=wrap;rounded=0;" parent="1" vertex="1">
          <mxGeometry x="160" y="-270" width="40" height="20" as="geometry" />
        </mxCell>
        <mxCell id="bd4QD1NhrBbxVst7JC30-16" value="N" style="text;html=1;strokeColor=none;fillColor=none;align=center;verticalAlign=middle;whiteSpace=wrap;rounded=0;" parent="1" vertex="1">
          <mxGeometry x="110" y="-50" width="40" height="20" as="geometry" />
        </mxCell>
        <mxCell id="bd4QD1NhrBbxVst7JC30-20" value="1" style="text;html=1;strokeColor=none;fillColor=none;align=center;verticalAlign=middle;whiteSpace=wrap;rounded=0;" parent="1" vertex="1">
          <mxGeometry x="200" y="-20" width="40" height="20" as="geometry" />
        </mxCell>
        <mxCell id="bd4QD1NhrBbxVst7JC30-23" value="N" style="text;html=1;strokeColor=none;fillColor=none;align=center;verticalAlign=middle;whiteSpace=wrap;rounded=0;" parent="1" vertex="1">
          <mxGeometry x="420" y="310" width="40" height="20" as="geometry" />
        </mxCell>
        <mxCell id="DqapslR-0D_kuPsbDA2L-24" style="edgeStyle=none;curved=1;rounded=0;orthogonalLoop=1;jettySize=auto;html=1;fontSize=12;startSize=8;endSize=8;" edge="1" parent="1" source="DqapslR-0D_kuPsbDA2L-1" target="DqapslR-0D_kuPsbDA2L-22">
          <mxGeometry relative="1" as="geometry" />
        </mxCell>
        <mxCell id="DqapslR-0D_kuPsbDA2L-26" style="edgeStyle=none;curved=1;rounded=0;orthogonalLoop=1;jettySize=auto;html=1;fontSize=12;startSize=8;endSize=8;" edge="1" parent="1" source="DqapslR-0D_kuPsbDA2L-1" target="DqapslR-0D_kuPsbDA2L-20">
          <mxGeometry relative="1" as="geometry" />
        </mxCell>
        <mxCell id="DqapslR-0D_kuPsbDA2L-38" style="edgeStyle=none;curved=1;rounded=0;orthogonalLoop=1;jettySize=auto;html=1;fontSize=12;startSize=8;endSize=8;" edge="1" parent="1" source="DqapslR-0D_kuPsbDA2L-1" target="DqapslR-0D_kuPsbDA2L-37">
          <mxGeometry relative="1" as="geometry" />
        </mxCell>
        <mxCell id="DqapslR-0D_kuPsbDA2L-1" value="Zapisnik&lt;span style=&quot;color: rgba(0, 0, 0, 0); font-family: monospace; font-size: 0px; text-align: start; text-wrap: nowrap;&quot;&gt;%3CmxGraphModel%3E%3Croot%3E%3CmxCell%20id%3D%220%22%2F%3E%3CmxCell%20id%3D%221%22%20parent%3D%220%22%2F%3E%3CmxCell%20id%3D%222%22%20value%3D%22Agenda%22%20style%3D%22rounded%3D0%3BwhiteSpace%3Dwrap%3Bhtml%3D1%3B%22%20vertex%3D%221%22%20parent%3D%221%22%3E%3CmxGeometry%20x%3D%22470%22%20y%3D%22300%22%20width%3D%22100%22%20height%3D%2240%22%20as%3D%22geometry%22%2F%3E%3C%2FmxCell%3E%3C%2Froot%3E%3C%2FmxGraphModel%3E&lt;/span&gt;" style="rounded=0;whiteSpace=wrap;html=1;" vertex="1" parent="1">
          <mxGeometry x="440" y="-175" width="100" height="40" as="geometry" />
        </mxCell>
        <mxCell id="DqapslR-0D_kuPsbDA2L-4" value="1" style="text;html=1;strokeColor=none;fillColor=none;align=center;verticalAlign=middle;whiteSpace=wrap;rounded=0;" vertex="1" parent="1">
          <mxGeometry x="190" y="33" width="40" height="20" as="geometry" />
        </mxCell>
        <mxCell id="DqapslR-0D_kuPsbDA2L-7" value="N" style="text;html=1;strokeColor=none;fillColor=none;align=center;verticalAlign=middle;whiteSpace=wrap;rounded=0;" vertex="1" parent="1">
          <mxGeometry x="390" y="-155" width="40" height="20" as="geometry" />
        </mxCell>
        <mxCell id="DqapslR-0D_kuPsbDA2L-8" value="adresa" style="ellipse;whiteSpace=wrap;html=1;" vertex="1" parent="1">
          <mxGeometry x="-70" y="-300" width="90" height="40" as="geometry" />
        </mxCell>
        <mxCell id="DqapslR-0D_kuPsbDA2L-9" value="datum_aktivacije" style="ellipse;whiteSpace=wrap;html=1;" vertex="1" parent="1">
          <mxGeometry x="210" y="-490" width="100" height="40" as="geometry" />
        </mxCell>
        <mxCell id="DqapslR-0D_kuPsbDA2L-10" value="datum_rođenja" style="ellipse;whiteSpace=wrap;html=1;" vertex="1" parent="1">
          <mxGeometry x="305" y="-440" width="90" height="40" as="geometry" />
        </mxCell>
        <mxCell id="DqapslR-0D_kuPsbDA2L-14" value="status" style="ellipse;whiteSpace=wrap;html=1;" vertex="1" parent="1">
          <mxGeometry x="-60" y="90" width="90" height="40" as="geometry" />
        </mxCell>
        <mxCell id="DqapslR-0D_kuPsbDA2L-16" value="datum" style="ellipse;whiteSpace=wrap;html=1;" vertex="1" parent="1">
          <mxGeometry x="-70" y="-70" width="80" height="40" as="geometry" />
        </mxCell>
        <mxCell id="DqapslR-0D_kuPsbDA2L-20" value="datum_generiranja" style="ellipse;whiteSpace=wrap;html=1;" vertex="1" parent="1">
          <mxGeometry x="550" y="-320" width="120" height="40" as="geometry" />
        </mxCell>
        <mxCell id="DqapslR-0D_kuPsbDA2L-21" value="sadrzaj" style="ellipse;whiteSpace=wrap;html=1;" vertex="1" parent="1">
          <mxGeometry x="470" y="-360" width="80" height="40" as="geometry" />
        </mxCell>
        <mxCell id="DqapslR-0D_kuPsbDA2L-22" value="zapisnikID" style="ellipse;whiteSpace=wrap;html=1;" vertex="1" parent="1">
          <mxGeometry x="380" y="-320" width="80" height="40" as="geometry" />
        </mxCell>
        <mxCell id="DqapslR-0D_kuPsbDA2L-25" style="edgeStyle=none;curved=1;rounded=0;orthogonalLoop=1;jettySize=auto;html=1;entryX=0.394;entryY=0.822;entryDx=0;entryDy=0;entryPerimeter=0;fontSize=12;startSize=8;endSize=8;" edge="1" parent="1" source="DqapslR-0D_kuPsbDA2L-1" target="DqapslR-0D_kuPsbDA2L-21">
          <mxGeometry relative="1" as="geometry" />
        </mxCell>
        <mxCell id="DqapslR-0D_kuPsbDA2L-37" value="kreatorID" style="ellipse;whiteSpace=wrap;html=1;" vertex="1" parent="1">
          <mxGeometry x="610" y="-250" width="120" height="40" as="geometry" />
        </mxCell>
      </root>
    </mxGraphModel>
  </diagram>
</mxfile>
